<svg xmlns="http://www.w3.org/2000/svg" viewBox="0 0 100 100" width="36" height="36">
  <defs>
    <linearGradient id="dawnGrad" x1="0%" y1="100%" x2="100%" y2="0%">
      <stop offset="0%" stop-color="#b80f0f" />
      <stop offset="60%" stop-color="#ff2a2a" />
      <stop offset="100%" stop-color="#ffa600" />
    </linearGradient>
    <filter id="menuGlow" x="-20%" y="-20%" width="140%" height="140%">
      <feDropShadow dx="0" dy="2.5" stdDeviation="2" flood-color="#000" flood-opacity="0.25"/>
    </filter>
  </defs>
  <path 
    d="M 50,15 C 75,15 85,35 85,55 C 85,75 65,85 45,85 C 20,85 15,65 15,45 C 15,25 30,15 50,15 Z M 45,32 C 35,32 28,40 28,50 C 28,60 38,68 48,68 C 62,68 72,55 68,38 C 60,30 52,32 45,32 Z" 
    fill="url(#dawnGrad)" 
    filter="url(#menuGlow)"
    fill-rule="evenodd"
  />
</svg>